<mxfile host="app.diagrams.net" agent="Mozilla/5.0 (Windows NT 10.0; Win64; x64) AppleWebKit/537.36 (KHTML, like Gecko) Chrome/123.0.0.0 Safari/537.36 OPR/109.0.0.0 (Edition std-1)" version="24.7.5">
  <diagram name="Página-1" id="7Q4WFYhgeIYkycU3KN6H">
    <mxGraphModel dx="1009" dy="542" grid="1" gridSize="10" guides="1" tooltips="1" connect="1" arrows="1" fold="1" page="1" pageScale="1" pageWidth="827" pageHeight="1169" math="0" shadow="0">
      <root>
        <mxCell id="0" />
        <mxCell id="1" parent="0" />
        <mxCell id="u3WSAHoaSrW0KbRctlTT-18" value="" style="edgeStyle=orthogonalEdgeStyle;rounded=0;orthogonalLoop=1;jettySize=auto;html=1;" edge="1" parent="1" source="u3WSAHoaSrW0KbRctlTT-3" target="u3WSAHoaSrW0KbRctlTT-17">
          <mxGeometry relative="1" as="geometry" />
        </mxCell>
        <mxCell id="u3WSAHoaSrW0KbRctlTT-3" value="Worker" style="shape=umlActor;verticalLabelPosition=bottom;verticalAlign=top;html=1;outlineConnect=0;" vertex="1" parent="1">
          <mxGeometry x="295" y="20" width="30" height="60" as="geometry" />
        </mxCell>
        <mxCell id="u3WSAHoaSrW0KbRctlTT-14" value="" style="edgeStyle=orthogonalEdgeStyle;rounded=0;orthogonalLoop=1;jettySize=auto;html=1;" edge="1" parent="1" source="u3WSAHoaSrW0KbRctlTT-5" target="u3WSAHoaSrW0KbRctlTT-8">
          <mxGeometry relative="1" as="geometry" />
        </mxCell>
        <mxCell id="u3WSAHoaSrW0KbRctlTT-5" value="banco de dados" style="shape=cylinder3;whiteSpace=wrap;html=1;boundedLbl=1;backgroundOutline=1;size=15;" vertex="1" parent="1">
          <mxGeometry x="260" y="280" width="100" height="120" as="geometry" />
        </mxCell>
        <mxCell id="u3WSAHoaSrW0KbRctlTT-22" style="edgeStyle=orthogonalEdgeStyle;rounded=0;orthogonalLoop=1;jettySize=auto;html=1;" edge="1" parent="1" source="u3WSAHoaSrW0KbRctlTT-8" target="u3WSAHoaSrW0KbRctlTT-15">
          <mxGeometry relative="1" as="geometry" />
        </mxCell>
        <mxCell id="u3WSAHoaSrW0KbRctlTT-25" style="edgeStyle=orthogonalEdgeStyle;rounded=0;orthogonalLoop=1;jettySize=auto;html=1;" edge="1" parent="1" source="u3WSAHoaSrW0KbRctlTT-8" target="u3WSAHoaSrW0KbRctlTT-21">
          <mxGeometry relative="1" as="geometry" />
        </mxCell>
        <mxCell id="u3WSAHoaSrW0KbRctlTT-8" value="Há agendamentos para o próximo dia útil?" style="rhombus;whiteSpace=wrap;html=1;" vertex="1" parent="1">
          <mxGeometry x="215" y="490" width="190" height="180" as="geometry" />
        </mxCell>
        <mxCell id="u3WSAHoaSrW0KbRctlTT-23" style="edgeStyle=orthogonalEdgeStyle;rounded=0;orthogonalLoop=1;jettySize=auto;html=1;entryX=0;entryY=0.5;entryDx=0;entryDy=0;" edge="1" parent="1" source="u3WSAHoaSrW0KbRctlTT-15" target="u3WSAHoaSrW0KbRctlTT-21">
          <mxGeometry relative="1" as="geometry">
            <Array as="points">
              <mxPoint x="120" y="880" />
            </Array>
          </mxGeometry>
        </mxCell>
        <mxCell id="u3WSAHoaSrW0KbRctlTT-15" value="Dispara e-mail" style="rounded=1;whiteSpace=wrap;html=1;" vertex="1" parent="1">
          <mxGeometry x="60" y="730" width="120" height="60" as="geometry" />
        </mxCell>
        <mxCell id="u3WSAHoaSrW0KbRctlTT-20" value="" style="edgeStyle=orthogonalEdgeStyle;rounded=0;orthogonalLoop=1;jettySize=auto;html=1;" edge="1" parent="1" source="u3WSAHoaSrW0KbRctlTT-17" target="u3WSAHoaSrW0KbRctlTT-5">
          <mxGeometry relative="1" as="geometry" />
        </mxCell>
        <mxCell id="u3WSAHoaSrW0KbRctlTT-17" value="Inicio" style="ellipse;whiteSpace=wrap;html=1;aspect=fixed;" vertex="1" parent="1">
          <mxGeometry x="279.5" y="150" width="61" height="61" as="geometry" />
        </mxCell>
        <mxCell id="u3WSAHoaSrW0KbRctlTT-21" value="Fim" style="ellipse;whiteSpace=wrap;html=1;aspect=fixed;" vertex="1" parent="1">
          <mxGeometry x="269.75" y="840" width="80.5" height="80.5" as="geometry" />
        </mxCell>
        <mxCell id="u3WSAHoaSrW0KbRctlTT-26" value="Não" style="text;html=1;align=center;verticalAlign=middle;whiteSpace=wrap;rounded=0;" vertex="1" parent="1">
          <mxGeometry x="330" y="650" width="60" height="30" as="geometry" />
        </mxCell>
        <mxCell id="u3WSAHoaSrW0KbRctlTT-27" value="Sim" style="text;html=1;align=center;verticalAlign=middle;whiteSpace=wrap;rounded=0;" vertex="1" parent="1">
          <mxGeometry x="160" y="540" width="60" height="30" as="geometry" />
        </mxCell>
      </root>
    </mxGraphModel>
  </diagram>
</mxfile>
